:SAMPLES-PER-SECOND 24
:FULLY-SPECIFIED
:DEGREES
450
root  -1.40534 37.5279 29.3792 16.4803 39.3178 6.42438
RightUpLeg  -37.2822 -13.452 -11.0426
RightLeg  5.58518 -22.0303 2.37061
RightFoot  18.6008 0.497045 -1.38033
RightToes  -2.08645e-008 3.77894e-005 6.81332e-007
Spine  0.831743 -6.1946 -2.00305
Spine1  1.68674 -6.43376 2.72099
HEad  -34.9952 -6.53976 -2.66824
LeftShoulder1  8.20516 -14.1064 -40.3675
LeftArm  7.45114 31.5436 -25.1143
LeftForeArm  158.29 -71.1813 -150.006
LeftHand  -0.0868651 -3.65988 1.36989
RightShoulder  3.71063 6.34765 31.778
RightArm  -2.1676 -19.7307 33.7853
RightForeArm  110.919 80.1085 101.999
RightHand  -0.0595995 8.41821 -0.883438
LeftUpLeg  1.46289 5.49876 8.4014
LeftLeg  30.6367 0.28747 0.54043
LeftFoot  -2.4258 2.07483 -26.269
LeftToes  1.24767e-006 1.47042e-008 1.32732e-009
451
root  -1.62852 36.585 27.0119 14.2758 40.5722 6.30188
RightUpLeg  -37.3248 -14.7309 -12.8524
RightLeg  4.33228 -23.5575 2.46988
RightFoot  19.3964 -0.559833 2.53023
RightToes  -2.08645e-008 3.77894e-005 6.81332e-007
Spine  3.45567 -4.84811 -2.42011
Spine1  2.88318 -5.28102 2.87471
HEad  -36.3776 -8.69624 -1.63395
LeftShoulder1  8.57375 -14.3509 -41.7062
LeftArm  0.580548 33.0346 -26.6216
LeftForeArm  155.481 -71.8964 -148.371
LeftHand  -0.174088 -3.19208 2.5951
RightShoulder  4.02797 6.65077 33.7799
RightArm  -0.40531 -16.9025 36.7015
RightForeArm  104.782 80.3112 95.1704
RightHand  -0.124059 8.72462 -1.40627
LeftUpLeg  1.9767 6.66939 6.37639
LeftLeg  32.8984 1.24438 1.22572
LeftFoot  -17.8315 -1.29306 -24.3376
LeftToes  1.24767e-006 1.47042e-008 1.32732e-009
452
root  -1.84395 35.858 24.7355 11.9753 43.5799 6.08551
RightUpLeg  -34.6684 -15.8354 -15.1676
RightLeg  0.457702 -25.6699 3.20592
RightFoot  15.8094 -1.08128 4.90938
RightToes  -2.08645e-008 3.77894e-005 6.81332e-007
Spine  4.95424 -3.95166 -3.66921
Spine1  5.64418 -4.95716 4.36942
HEad  -38.3595 -11.7997 0.0402756
LeftShoulder1  9.00333 -14.6384 -43.1985
LeftArm  -3.45193 29.9275 -27.6962
LeftForeArm  150.855 -73.1274 -145.25
LeftHand  -0.366444 -2.5852 5.55127
RightShoulder  4.32698 6.92914 35.5658
RightArm  1.55029 -14.5078 36.9939
RightForeArm  108.058 80.42 95.8511
RightHand  0.207923 10.5993 1.10239
LeftUpLeg  1.91882 3.54741 3.85988
LeftLeg  33.8794 3.75099 3.07562
LeftFoot  -28.8906 -2.96438 -20.0842
LeftToes  1.24767e-006 1.47042e-008 1.32732e-009
453
root  -2.02016 35.4611 22.8894 8.96448 47.2189 4.86591
RightUpLeg  -30.2124 -15.2509 -16.8172
RightLeg  -4.41006 -26.5179 3.56783
RightFoot  7.95094 -0.647025 4.0565
RightToes  -2.08645e-008 3.77894e-005 6.81332e-007
Spine  6.43748 -3.16076 -4.31466
Spine1  6.99651 -4.51875 5.55506
HEad  -39.737 -15.0864 2.30839
LeftShoulder1  9.24009 -14.7919 -44.0071
LeftArm  -2.95309 24.562 -27.5921
LeftForeArm  147.388 -74.5776 -141.306
LeftHand  -0.527305 -2.03847 8.43546
RightShoulder  4.47534 7.05231 36.4674
RightArm  2.96546 -15.4339 35.7641
RightForeArm  120.896 80.1863 106.362
RightHand  0.289766 11.0947 1.61756
LeftUpLeg  1.23091 -3.26245 1.37134
LeftLeg  35.7806 8.37157 6.81912
LeftFoot  -34.7647 -3.48259 -17.6651
LeftToes  1.24767e-006 1.47042e-008 1.32732e-009
454
root  -2.09512 35.6398 21.6903 5.90808 48.6942 2.43695
RightUpLeg  -27.7544 -12.8722 -16.0938
RightLeg  -5.05207 -22.9926 2.07117
RightFoot  2.86184 -0.522673 4.41104
RightToes  -2.08645e-008 3.77894e-005 6.81332e-007
Spine  6.91864 -1.99843 -4.33903
Spine1  6.53549 -3.29459 6.01904
HEad  -38.9322 -17.0718 4.29927
LeftShoulder1  9.03716 -14.6514 -43.339
LeftArm  -0.6896 22.3185 -27.2447
LeftForeArm  149.52 -74.4634 -142.006
LeftHand  -0.552257 -1.80525 9.09317
RightShoulder  4.44935 7.01527 36.3711
RightArm  5.481 -19.2943 34.2276
RightForeArm  130.742 79.3908 117.182
RightHand  0.331562 10.807 1.94731
LeftUpLeg  0.795304 -5.67959 1.15681
LeftLeg  36.459 9.83288 8.07491
LeftFoot  -35.8323 -3.41505 -16.6376
LeftToes  1.24767e-006 1.47042e-008 1.32732e-009
